ffmpeg started on 2016-11-29 at 20:58:48
Report written to "Output/x264/results/ffmpeg/old_town_cross_2160p50veryfast10000k.log"
Command line:
Tools/ffmpeg/ffmpeg -benchmark -y -i Input/y4m/old_town_cross_2160p50.y4m -c:v libx264 -preset veryfast -b:v 10000k -an Output/x264/encoded/old_town_cross_2160p50veryfast10000k.mkv
ffmpeg version N-82227-gdb23fde Copyright (c) 2000-2016 the FFmpeg developers
  built with gcc 5.4.0 (Ubuntu 5.4.0-6ubuntu1~16.04.2) 20160609
  configuration: --prefix=/home/jaroslav/ffmpeg_build --pkg-config-flags=--static --extra-cflags=-I/home/jaroslav/ffmpeg_build/include --extra-ldflags=-L/home/jaroslav/ffmpeg_build/lib --bindir=/home/jaroslav/bin --enable-gpl --enable-libass --enable-libfdk-aac --enable-libfreetype --enable-libmp3lame --enable-libopus --enable-libtheora --enable-libvorbis --enable-libvpx --enable-libx264 --enable-libx265 --enable-nvenc --enable-libmfx --enable-libxvid --enable-libgsm --enable-libopencore-amrnb --enable-version3 --enable-nonfree
  libavutil      55. 35.100 / 55. 35.100
  libavcodec     57. 66.101 / 57. 66.101
  libavformat    57. 57.100 / 57. 57.100
  libavdevice    57.  2.100 / 57.  2.100
  libavfilter     6. 66.100 /  6. 66.100
  libswscale      4.  3.100 /  4.  3.100
  libswresample   2.  4.100 /  2.  4.100
  libpostproc    54.  2.100 / 54.  2.100
Input #0, yuv4mpegpipe, from 'Input/y4m/old_town_cross_2160p50.y4m':
  Duration: 00:00:10.00, start: 0.000000, bitrate: 4976642 kb/s
    Stream #0:0: Video: rawvideo (I420 / 0x30323449), yuv420p(progressive), 3840x2160, SAR 1:1 DAR 16:9, 50 fps, 50 tbr, 50 tbn, 50 tbc
[libx264 @ 0x2887120] using SAR=1/1
[libx264 @ 0x2887120] using cpu capabilities: MMX2 SSE2Fast SSSE3 SSE4.2 AVX FMA3 AVX2 LZCNT BMI2
[libx264 @ 0x2887120] profile High, level 5.2
[libx264 @ 0x2887120] 264 - core 148 - H.264/MPEG-4 AVC codec - Copyleft 2003-2016 - http://www.videolan.org/x264.html - options: cabac=1 ref=1 deblock=1:0:0 analyse=0x3:0x113 me=hex subme=2 psy=1 psy_rd=1.00:0.00 mixed_ref=0 me_range=16 chroma_me=1 trellis=0 8x8dct=1 cqm=0 deadzone=21,11 fast_pskip=1 chroma_qp_offset=0 threads=6 lookahead_threads=2 sliced_threads=0 nr=0 decimate=1 interlaced=0 bluray_compat=0 constrained_intra=0 bframes=3 b_pyramid=2 b_adapt=1 b_bias=0 direct=1 weightb=1 open_gop=0 weightp=1 keyint=250 keyint_min=25 scenecut=40 intra_refresh=0 rc_lookahead=10 rc=abr mbtree=1 bitrate=10000 ratetol=1.0 qcomp=0.60 qpmin=0 qpmax=69 qpstep=4 ip_ratio=1.40 aq=1:1.00
Output #0, matroska, to 'Output/x264/encoded/old_town_cross_2160p50veryfast10000k.mkv':
  Metadata:
    encoder         : Lavf57.57.100
    Stream #0:0: Video: h264 (libx264) (H264 / 0x34363248), yuv420p, 3840x2160 [SAR 1:1 DAR 16:9], q=-1--1, 10000 kb/s, 50 fps, 1k tbn, 50 tbc
    Metadata:
      encoder         : Lavc57.66.101 libx264
    Side data:
      cpb: bitrate max/min/avg: 0/0/10000000 buffer size: 0 vbv_delay: -1
Stream mapping:
  Stream #0:0 -> #0:0 (rawvideo (native) -> h264 (libx264))
Press [q] to stop, [?] for help
frame=   22 fps=0.0 q=34.0 size=       1kB time=-00:00:00.01 bitrate=N/A speed=N/A    frame=   38 fps= 35 q=37.0 size=       1kB time=00:00:00.30 bitrate=  19.5kbits/s speed=0.274x    frame=   54 fps= 33 q=33.0 size=       1kB time=00:00:00.62 bitrate=   9.4kbits/s speed=0.382x    frame=   70 fps= 32 q=33.0 size=       1kB time=00:00:00.94 bitrate=   6.2kbits/s speed=0.427x    frame=   86 fps= 31 q=33.0 size=       1kB time=00:00:01.26 bitrate=   4.7kbits/s speed=0.453x    frame=  102 fps= 31 q=33.0 size=       1kB time=00:00:01.58 bitrate=   3.7kbits/s speed=0.474x    frame=  118 fps= 30 q=33.0 size=       1kB time=00:00:01.90 bitrate=   3.1kbits/s speed=0.489x    frame=  134 fps= 30 q=33.0 size=       1kB time=00:00:02.22 bitrate=   2.6kbits/s speed=0.499x    frame=  150 fps= 30 q=33.0 size=       1kB time=00:00:02.54 bitrate=   2.3kbits/s speed=0.51x    frame=  166 fps= 30 q=33.0 size=       1kB time=00:00:02.86 bitrate=   2.0kbits/s speed=0.516x    frame=  182 fps= 30 q=33.0 size=       1kB time=00:00:03.18 bitrate=   1.8kbits/s speed=0.522x    frame=  198 fps= 30 q=33.0 size=       1kB time=00:00:03.50 bitrate=   1.7kbits/s speed=0.525x    frame=  214 fps= 30 q=33.0 size=       1kB time=00:00:03.82 bitrate=   1.5kbits/s speed=0.531x    frame=  230 fps= 30 q=33.0 size=       1kB time=00:00:04.14 bitrate=   1.4kbits/s speed=0.533x    frame=  236 fps= 28 q=33.0 size=       1kB time=00:00:04.26 bitrate=   1.4kbits/s speed=0.512x    frame=  244 fps= 28 q=33.0 size=    5162kB time=00:00:04.42 bitrate=9564.8kbits/s speed=0.501x    frame=  252 fps= 27 q=33.0 size=    5162kB time=00:00:04.58 bitrate=9230.7kbits/s speed=0.491x    frame=  260 fps= 26 q=34.0 size=    5162kB time=00:00:04.74 bitrate=8919.2kbits/s speed=0.482x    frame=  271 fps= 26 q=34.0 size=    6179kB time=00:00:04.96 bitrate=10203.5kbits/s speed=0.478x    frame=  287 fps= 26 q=34.0 size=    6179kB time=00:00:05.28 bitrate=9585.3kbits/s speed=0.484x    frame=  303 fps= 26 q=34.0 size=    6179kB time=00:00:05.60 bitrate=9037.6kbits/s speed=0.488x    frame=  319 fps= 26 q=33.0 size=    6179kB time=00:00:05.92 bitrate=8549.2kbits/s speed=0.491x    frame=  335 fps= 27 q=33.0 size=    6179kB time=00:00:06.24 bitrate=8110.8kbits/s speed=0.496x    frame=  351 fps= 27 q=33.0 size=    6179kB time=00:00:06.56 bitrate=7715.2kbits/s speed=0.499x    frame=  367 fps= 27 q=33.0 size=    6179kB time=00:00:06.88 bitrate=7356.5kbits/s speed=0.503x    frame=  382 fps= 27 q=33.0 size=    6179kB time=00:00:07.18 bitrate=7049.1kbits/s speed=0.506x    frame=  395 fps= 27 q=33.0 size=    6179kB time=00:00:07.44 bitrate=6802.8kbits/s speed=0.506x    frame=  411 fps= 27 q=33.0 size=    6179kB time=00:00:07.76 bitrate=6522.3kbits/s speed=0.509x    frame=  427 fps= 27 q=33.0 size=    6179kB time=00:00:08.08 bitrate=6264.0kbits/s speed=0.511x    frame=  443 fps= 27 q=33.0 size=    6179kB time=00:00:08.40 bitrate=6025.4kbits/s speed=0.512x    frame=  459 fps= 27 q=33.0 size=    6179kB time=00:00:08.72 bitrate=5804.4kbits/s speed=0.515x    frame=  473 fps= 27 q=33.0 size=    6179kB time=00:00:09.00 bitrate=5623.8kbits/s speed=0.513x    frame=  480 fps= 27 q=33.0 size=    6179kB time=00:00:09.14 bitrate=5537.7kbits/s speed=0.505x    frame=  488 fps= 26 q=33.0 size=   11308kB time=00:00:09.30 bitrate=9959.5kbits/s speed= 0.5x    frame=  496 fps= 26 q=34.0 size=   11308kB time=00:00:09.46 bitrate=9791.0kbits/s speed=0.495x    frame=  500 fps= 25 q=-1.0 Lsize=   12717kB time=00:00:09.94 bitrate=10479.9kbits/s speed=0.497x    
video:12713kB audio:0kB subtitle:0kB other streams:0kB global headers:0kB muxing overhead: 0.035751%
bench: utime=67.692s
bench: maxrss=1089776kB
[libx264 @ 0x2887120] frame I:3     Avg QP:29.49  size:416065
[libx264 @ 0x2887120] frame P:183   Avg QP:31.40  size: 43831
[libx264 @ 0x2887120] frame B:314   Avg QP:32.71  size: 11936
[libx264 @ 0x2887120] consecutive B-frames: 16.0%  0.8%  0.0% 83.2%
[libx264 @ 0x2887120] mb I  I16..4: 28.5% 55.8% 15.7%
[libx264 @ 0x2887120] mb P  I16..4:  3.4%  2.2%  0.0%  P16..4: 23.5%  6.1%  1.5%  0.0%  0.0%    skip:63.3%
[libx264 @ 0x2887120] mb B  I16..4:  0.9%  0.4%  0.0%  B16..8:  8.9%  0.9%  0.0%  direct: 3.7%  skip:85.2%  L0:38.2% L1:58.7% BI: 3.1%
[libx264 @ 0x2887120] final ratefactor: 25.44
[libx264 @ 0x2887120] 8x8 transform intra:39.7% inter:43.8%
[libx264 @ 0x2887120] coded y,uvDC,uvAC intra: 53.4% 40.4% 23.3% inter: 2.9% 2.8% 0.0%
[libx264 @ 0x2887120] i16 v,h,dc,p: 30% 26% 35%  9%
[libx264 @ 0x2887120] i8 v,h,dc,ddl,ddr,vr,hd,vl,hu:  9% 13% 58%  3%  3%  3%  4%  3%  4%
[libx264 @ 0x2887120] i4 v,h,dc,ddl,ddr,vr,hd,vl,hu: 17% 27% 11%  7%  7%  7% 10%  6%  9%
[libx264 @ 0x2887120] i8c dc,h,v,p: 73% 13% 13%  1%
[libx264 @ 0x2887120] Weighted P-Frames: Y:0.5% UV:0.0%
[libx264 @ 0x2887120] kb/s:10413.81
